<mxfile host="app.diagrams.net" modified="2024-03-13T15:39:01.490Z" agent="Mozilla/5.0 (X11; Ubuntu; Linux x86_64; rv:123.0) Gecko/20100101 Firefox/123.0" version="24.0.5" etag="QGvPJrydrBAussz9l-6v" type="github">
  <diagram name="Page-1" id="HPnKJZSjGe8xQvWfXh0J">
    <mxGraphModel>
      <root>
        <mxCell id="0" />
        <mxCell id="1" parent="0" />
      </root>
    </mxGraphModel>
  </diagram>
</mxfile>
